<svg version="1.2" baseProfile="tiny-ps" xmlns="http://www.w3.org/2000/svg" viewBox="0 0 60 60" width="60" height="60">
	<title>Platform Features</title>
	<style>
		tspan { white-space:pre }
		.shp0 { fill: #26e6e6 } 
		.shp1 { fill: #2f3238 } 
	</style>
	<g id="Platform Features">
		<g id="Fully Cutomizable">
			<g id="adjustments">
				<path id="blue" class="shp0" d="M46 34C46.55 34 47 34.45 47 35L47 49C47 49.55 46.55 50 46 50C45.45 50 45 49.55 45 49L45 35C45 34.45 45.45 34 46 34ZM14 50C13.45 50 13 49.55 13 49L13 43C13 42.45 13.45 42 14 42C14.55 42 15 42.45 15 43L15 49C15 49.55 14.55 50 14 50ZM30 22C30.55 22 31 22.45 31 23L31 49C31 49.55 30.55 50 30 50C29.45 50 29 49.55 29 49L29 23C29 22.45 29.45 22 30 22Z" />
				<path id="black" fill-rule="evenodd" class="shp1" d="M59 60C58.45 60 58 59.55 58 59L58 4C58 2.89 57.1 2 56 2L4 2C2.9 2 2 2.89 2 4L2 56C2 57.1 2.9 58 4 58L53 58C53.55 58 54 58.45 54 59C54 59.55 53.55 60 53 60L4 60C1.79 60 0 58.21 0 56L0 4C0 1.79 1.79 0 4 0L56 0C58.21 0 60 1.79 60 4L60 59C60 59.55 59.55 60 59 60ZM46 22C48.21 22 50 23.79 50 26C50 28.21 48.21 30 46 30C43.79 30 42 28.21 42 26C42 23.79 43.79 22 46 22ZM44 26C44 27.1 44.9 28 46 28C47.1 28 48 27.1 48 26C48 24.9 47.1 24 46 24C44.9 24 44 24.9 44 26ZM46 10C46.55 10 47 10.45 47 11L47 17C47 17.55 46.55 18 46 18C45.45 18 45 17.55 45 17L45 11C45 10.45 45.45 10 46 10ZM14 38C11.79 38 10 36.21 10 34C10 31.79 11.79 30 14 30C16.21 30 18 31.79 18 34C18 36.21 16.21 38 14 38ZM16 34C16 32.9 15.1 32 14 32C12.9 32 12 32.9 12 34C12 35.1 12.9 36 14 36C15.1 36 16 35.1 16 34ZM14 26C13.45 26 13 25.55 13 25L13 11C13 10.45 13.45 10 14 10C14.55 10 15 10.45 15 11L15 25C15 25.55 14.55 26 14 26ZM30 18C27.79 18 26 16.21 26 14C26 11.79 27.79 10 30 10C32.21 10 34 11.79 34 14C34 16.21 32.21 18 30 18ZM32 14C32 12.9 31.1 12 30 12C28.9 12 28 12.9 28 14C28 15.1 28.9 16 30 16C31.1 16 32 15.1 32 14Z" />
			</g>
		</g>
	</g>
</svg>