<svg version="1.2" baseProfile="tiny-ps" xmlns="http://www.w3.org/2000/svg" viewBox="0 0 60 60" width="60" height="60">
	<title>iPhone Block</title>
	<style>
		tspan { white-space:pre }
		.shp0 { fill: #2f3238 } 
		.shp1 { fill: #26e6e6 } 
	</style>
	<g id="iPhone Block">
		<g id="Block">
			<g id="Make your business">
				<g id="briefcase">
					<path id="black" class="shp0" d="M59 60C58.45 60 58 59.55 58 59L58 16C58 14.89 57.1 14 56 14L4 14C2.9 14 2 14.89 2 16L2 56C2 57.1 2.9 58 4 58L53 58C53.55 58 54 58.45 54 59C54 59.55 53.55 60 53 60L4 60C1.79 60 0 58.21 0 56L0 16C0 13.79 1.79 12 4 12L56 12C58.21 12 60 13.79 60 16L60 59C60 59.55 59.55 60 59 60ZM38 12L38 4C38 2.89 37.1 2 36 2L24 2C22.9 2 22 2.89 22 4L22 7C22 7.55 21.55 8 21 8C20.45 8 20 7.55 20 7L20 4C20 1.79 21.79 0 24 0L36 0C38.21 0 40 1.79 40 4L40 12C38.9 12 38.45 12 38 12Z" />
					<path id="blue" class="shp1" d="M17 18C17.55 18 18 18.45 18 19L18 53C18 53.55 17.55 54 17 54C16.45 54 16 53.55 16 53L16 19C16 18.45 16.45 18 17 18ZM11 18C11.55 18 12 18.45 12 19L12 53C12 53.55 11.55 54 11 54C10.45 54 10 53.55 10 53L10 19C10 18.45 10.45 18 11 18ZM49 18C49.55 18 50 18.45 50 19L50 53C50 53.55 49.55 54 49 54C48.45 54 48 53.55 48 53L48 19C48 18.45 48.45 18 49 18ZM43 18C43.55 18 44 18.45 44 19L44 53C44 53.55 43.55 54 43 54C42.45 54 42 53.55 42 53L42 19C42 18.45 42.45 18 43 18Z" />
				</g>
			</g>
		</g>
	</g>
</svg>