<svg version="1.2" baseProfile="tiny-ps" xmlns="http://www.w3.org/2000/svg" viewBox="0 0 60 60" width="60" height="60">
	<title>iPhone Block</title>
	<style>
		tspan { white-space:pre }
		.shp0 { fill: #2f3238 } 
		.shp1 { fill: #26e6e6 } 
	</style>
	<g id="iPhone Block">
		<g id="Block">
			<g id="Create a beautiful website.">
				<g id="browsers">
					<path id="black" class="shp0" d="M50 60L4 60C1.79 60 0 58.21 0 56L0 10C0 7.79 1.79 6 4 6L47 6C47.55 6 48 6.45 48 7C48 7.55 47.55 8 47 8L4 8C2.9 8 2 8.89 2 10L2 56C2 57.1 2.9 58 4 58L50 58C51.1 58 52 57.1 52 56L52 7C52 6.45 52.45 6 53 6C53.55 6 54 6.45 54 7L54 56C54 58.21 52.21 60 50 60ZM7 20L53 20C53.55 20 54 20.45 54 21C54 21.55 53.55 22 53 22L7 22C6.45 22 6 21.55 6 21C6 20.45 6.45 20 7 20Z" />
					<path id="blue" class="shp1" d="M8 12C9.1 12 10 12.9 10 14C10 15.1 9.1 16 8 16C6.9 16 6 15.1 6 14C6 12.9 6.9 12 8 12ZM16 12C17.1 12 18 12.9 18 14C18 15.1 17.1 16 16 16C14.9 16 14 15.1 14 14C14 12.9 14.9 12 16 12ZM24 12C25.1 12 26 12.9 26 14C26 15.1 25.1 16 24 16C22.9 16 22 15.1 22 14C22 12.9 22.9 12 24 12ZM59 54C58.45 54 58 53.55 58 53L58 4C58 2.89 57.1 2 56 2L8 2L8 2L7 2C6.45 2 6 1.55 6 1C6 0.45 6.45 0 7 0L17 0C17 0 17 0 17 0L56 0C58.21 0 60 1.79 60 4L60 53C60 53.55 59.55 54 59 54Z" />
				</g>
			</g>
		</g>
	</g>
</svg>