<svg version="1.2" baseProfile="tiny-ps" xmlns="http://www.w3.org/2000/svg" viewBox="0 0 60 43" width="60" height="43">
	<title>Features with big icons</title>
	<style>
		tspan { white-space:pre }
		.shp0 { fill: #2f3238 } 
		.shp1 { fill: #26e6e6 } 
	</style>
	<g id="Features with big icons">
		<g id="Third">
			<g id="card">
				<path id="black" class="shp0" d="M45 43L20 43C17.79 43 16 41.21 16 39C16 38.27 16.21 37.59 16.55 37L16 37C13.79 37 12 35.21 12 33L14 33C14 34.1 14.9 35 16 35L20 35L32 35C32 35.19 32 35.39 32 35.61C32 36.01 32 36.46 32 37L20 37C18.9 37 18 37.89 18 39C18 40.1 18.9 41 20 41L45 41C52.18 41 58 35.18 58 28C58 20.82 52.18 15 45 15L30 15C28.9 15 28 15.9 28 17C28 18.1 28.9 19 30 19L40 19C40 19.74 40 20.41 40 21L30 21C27.79 21 26 19.21 26 17C26 14.79 27.79 13 30 13L45 13C53.28 13 60 19.72 60 28C60 36.28 53.28 43 45 43ZM47 28C42.03 28 38 23.97 38 19L40 19C40 22.87 43.13 26 47 26C47.55 26 48 26.45 48 27C48 27.55 47.55 28 47 28ZM36 33L4 33C1.79 33 0 31.21 0 29L0 1C0 0.45 0.45 0 1 0C1.55 0 2 0.45 2 1L2 29C2 30.1 2.9 31 4 31L36 31C37.1 31 38 30.1 38 29L38 29C38 28.45 38.45 28 39 28C39.55 28 40 28.45 40 29L40 29C40 31.21 38.21 33 36 33ZM38 4C38 2.89 37.1 2 36 2L7 2L7 2C6.45 2 6 1.55 6 1C6 0.45 6.45 0 7 0L7 0L36 0C38.21 0 40 1.79 40 4L40 13L38 13L38 4ZM7 6L33 6C33.55 6 34 6.45 34 7C34 7.55 33.55 8 33 8L7 8C6.45 8 6 7.55 6 7C6 6.45 6.45 6 7 6Z" />
				<path id="blue" class="shp1" d="M7 12L21 12C21.55 12 22 12.45 22 13C22 13.55 21.55 14 21 14L7 14C6.45 14 6 13.55 6 13C6 12.45 6.45 12 7 12ZM7 25L33 25C33.55 25 34 25.45 34 26C34 26.55 33.55 27 33 27L7 27C6.45 27 6 26.55 6 26C6 25.45 6.45 25 7 25Z" />
			</g>
		</g>
	</g>
</svg>