<svg version="1.2" baseProfile="tiny-ps" xmlns="http://www.w3.org/2000/svg" viewBox="0 0 60 45" width="60" height="45">
	<title>Platform Features</title>
	<style>
		tspan { white-space:pre }
		.shp0 { fill: #2f3238 } 
		.shp1 { fill: #26e6e6 } 
	</style>
	<g id="Platform Features">
		<g id="E-commerce">
			<g id="cart">
				<path id="black" fill-rule="evenodd" class="shp0" d="M23 37C25.21 37 27 38.79 27 41C27 43.21 25.21 45 23 45C20.79 45 19 43.21 19 41C19 38.79 20.79 37 23 37ZM21 41C21 42.1 21.9 43 23 43C24.1 43 25 42.1 25 41C25 39.9 24.1 39 23 39C21.9 39 21 39.9 21 41ZM49 37C51.21 37 53 38.79 53 41C53 43.21 51.21 45 49 45C46.79 45 45 43.21 45 41C45 38.79 46.79 37 49 37ZM47 41C47 42.1 47.9 43 49 43C50.1 43 51 42.1 51 41C51 39.9 50.1 39 49 39C47.9 39 47 39.9 47 41ZM1 0L10.78 0C10.96 -0.04 11.14 -0.02 11.3 0.05C11.71 0.18 12 0.55 12 1C12 1.03 12 1.06 12 1.09L19.79 31L51.24 31L57.69 7L19 7C18.45 7 18 6.55 18 6C18 5.45 18.45 5 19 5L58.86 5C58.99 4.98 59.12 4.99 59.25 5.02C59.51 5.09 59.72 5.26 59.85 5.47C59.94 5.62 60 5.8 60 6C60 6.14 59.97 6.27 59.92 6.39L52.97 32.27C52.84 32.76 52.36 33.07 51.87 33L19.22 33C19.04 33.04 18.86 33.02 18.69 32.95C18.29 32.82 18 32.44 18 32C18 31.97 18 31.94 18 31.91L10.21 2L1 2C0.45 2 0 1.55 0 1C0 0.45 0.45 0 1 0ZM32 40L40 40C40.55 40 41 40.45 41 41C41 41.55 40.55 42 40 42L32 42C31.45 42 31 41.55 31 41C31 40.45 31.45 40 32 40Z" />
				<path id="blue" class="shp1" d="M33 11C33.55 11 34 11.45 34 12L34 26C34 26.55 33.55 27 33 27C32.45 27 32 26.55 32 26L32 12C32 11.45 32.45 11 33 11ZM39 11C39.55 11 40 11.45 40 12L40 26C40 26.55 39.55 27 39 27C38.45 27 38 26.55 38 26L38 12C38 11.45 38.45 11 39 11ZM44 16C44 16.55 43.55 17 43 17L29 17C28.45 17 28 16.55 28 16C28 15.45 28.45 15 29 15L43 15C43.55 15 44 15.45 44 16ZM44 22C44 22.55 43.55 23 43 23L29 23C28.45 23 28 22.55 28 22C28 21.45 28.45 21 29 21L43 21C43.55 21 44 21.45 44 22Z" />
			</g>
		</g>
	</g>
</svg>