<svg version="1.2" baseProfile="tiny-ps" xmlns="http://www.w3.org/2000/svg" viewBox="0 0 56 56" width="56" height="56">
	<title>Platform Features</title>
	<style>
		tspan { white-space:pre }
		.shp0 { fill: #26e6e6 } 
		.shp1 { fill: #2f3238 } 
	</style>
	<g id="Platform Features">
		<g id="Statistcs">
			<g id="chart">
				<path id="blue" class="shp0" d="M55.37 24C55.37 24.55 54.93 25 54.37 25L32 25C31.45 25 31 24.55 31 24L31 24L31 1.62C31 1.07 31.45 0.62 32 0.62C32.55 0.62 33 1.07 33 1.62L33 23L53.09 23C51 14.91 45.4 8.24 38 4.72C38 4.72 37.62 4.56 37.45 4.41C37.19 4.23 37 3.94 37 3.59C37 3.04 37.45 2.59 38 2.59C38.18 2.59 38.34 2.65 38.48 2.74C38.49 2.74 38.49 2.73 38.49 2.73C47.07 6.67 53.47 14.52 55.4 24L55.37 24Z" />
				<path id="black" class="shp1" d="M51.19 36.31C48.37 47.62 38.18 56 26 56C11.64 56 0 44.36 0 30C0 15.98 11.11 4.58 25 4.05L25 4.06C25.55 4.06 26 4.51 26 5.06C26 5.61 25.55 6.06 25 6.06C24.99 6.06 24.97 6.05 24.96 6.05C12.19 6.6 2 17.1 2 30C2 43.25 12.75 54 26 54C37.18 54 46.53 46.34 49.2 36C49.2 36 49.22 35.87 49.27 35.76C49.37 35.33 49.75 35 50.22 35C50.77 35 51.22 35.45 51.22 36C51.22 36.1 51.22 36.2 51.19 36.31ZM26 4C26.55 4 27 4.45 27 5L27 30C27 30.55 26.55 31 26 31C25.45 31 25 30.55 25 30L25 5C25 4.45 25.45 4 26 4ZM26 29L51 29C51.55 29 52 29.45 52 30C52 30.55 51.55 31 51 31L26 31C25.45 31 25 30.55 25 30C25 29.45 25.45 29 26 29ZM26.72 29.28C27.1 29.67 27.1 30.29 26.72 30.68L14.68 42.72C14.29 43.1 13.67 43.1 13.28 42.72C12.9 42.33 12.9 41.71 13.28 41.32L25.32 29.28C25.71 28.9 26.33 28.9 26.72 29.28Z" />
			</g>
		</g>
	</g>
</svg>