<svg version="1.2" baseProfile="tiny-ps" xmlns="http://www.w3.org/2000/svg" viewBox="0 0 60 60" width="60" height="60">
	<title>Platform Features</title>
	<style>
		tspan { white-space:pre }
		.shp0 { fill: #2f3238 } 
		.shp1 { fill: #26e6e6 } 
	</style>
	<g id="Platform Features">
		<g id="Discussions">
			<g id="chat">
				<path id="black" class="shp0" d="M54 42C54 44.21 52.21 46 50 46L21.39 46L7.75 59.64C7.57 59.86 7.3 60 7 60C6.58 60 6.22 59.74 6.08 59.37C6.01 59.22 5.99 59.07 6 58.91L6 46L6 46L6 44L8 44L8 56.54L20.26 44.28C20.44 44.1 20.67 44.01 20.91 44L20.91 44C20.95 44 20.99 44 21.04 44L50 44C51.1 44 52 43.1 52 42L52 10C52 8.9 51.1 8 50 8L4 8C2.9 8 2 8.9 2 10L2 41C2 41 2 41 2 41L2 45C2 45.55 1.55 46 1 46C0.45 46 0 45.55 0 45L0 42L0 42L0 10C0 7.79 1.79 6 4 6L50 6C52.21 6 54 7.79 54 10L54 42ZM8 44C8 44.66 8 44.45 8 45C8 45.55 8 45.06 8 46" />
				<path id="blue" fill-rule="evenodd" class="shp1" d="M17 23C18.66 23 20 24.34 20 26C20 27.66 18.66 29 17 29C15.34 29 14 27.66 14 26C14 24.34 15.34 23 17 23ZM16 26C16 26.55 16.45 27 17 27C17.55 27 18 26.55 18 26C18 25.45 17.55 25 17 25C16.45 25 16 25.45 16 26ZM27 23C28.66 23 30 24.34 30 26C30 27.66 28.66 29 27 29C25.34 29 24 27.66 24 26C24 24.34 25.34 23 27 23ZM26 26C26 26.55 26.45 27 27 27C27.55 27 28 26.55 28 26C28 25.45 27.55 25 27 25C26.45 25 26 25.45 26 26ZM37 23C38.66 23 40 24.34 40 26C40 27.66 38.66 29 37 29C35.34 29 34 27.66 34 26C34 24.34 35.34 23 37 23ZM36 26C36 26.55 36.45 27 37 27C37.55 27 38 26.55 38 26C38 25.45 37.55 25 37 25C36.45 25 36 25.45 36 26ZM59 42C58.45 42 58 41.55 58 41L58 4C58 2.89 57.1 2 56 2L7 2C6.45 2 6 1.55 6 1C6 0.45 6.45 0 7 0C7 0 17 0 17 0L56 0C58.21 0 60 1.79 60 4L60 41C60 41.55 59.55 42 59 42Z" />
			</g>
		</g>
	</g>
</svg>