<svg version="1.2" baseProfile="tiny-ps" xmlns="http://www.w3.org/2000/svg" viewBox="0 0 267 134" width="267" height="134">
	<title>Platform Features</title>
	<style>
		tspan { white-space:pre }
		.shp0 { fill: #2f3238 } 
		.shp1 { fill: #26e6e6 } 
		.txt2 { font-size: 18px;line-height: 26px;fill: #232323;font-weight: 300;font-family: "Montserrat-Light", "Montserrat" } 
		.txt3 { font-size: 14px;line-height: 22px;fill: #232323;font-weight: 300;font-family: "Montserrat-Light", "Montserrat" } 
	</style>
	<g id="Platform Features">
		<g id="Discussions">
			<g id="chat">
				<path id="black" class="shp0" d="M54 43C54 45.21 52.21 47 50 47L21.39 47L7.75 60.64C7.57 60.86 7.3 61 7 61C6.58 61 6.22 60.74 6.08 60.37C6.01 60.22 5.99 60.07 6 59.91L6 47L6 47L6 45L8 45L8 57.54L20.26 45.28C20.44 45.1 20.67 45.01 20.91 45L20.91 45C20.95 45 20.99 45 21.04 45L50 45C51.1 45 52 44.1 52 43L52 11C52 9.9 51.1 9 50 9L4 9C2.9 9 2 9.9 2 11L2 42C2 42 2 42 2 42L2 46C2 46.55 1.55 47 1 47C0.45 47 0 46.55 0 46L0 43L0 43L0 11C0 8.79 1.79 7 4 7L50 7C52.21 7 54 8.79 54 11L54 43ZM8 45C8 45.66 8 45.45 8 46C8 46.55 8 46.06 8 47" />
				<path id="blue" fill-rule="evenodd" class="shp1" d="M17 24C18.66 24 20 25.34 20 27C20 28.66 18.66 30 17 30C15.34 30 14 28.66 14 27C14 25.34 15.34 24 17 24ZM16 27C16 27.55 16.45 28 17 28C17.55 28 18 27.55 18 27C18 26.45 17.55 26 17 26C16.45 26 16 26.45 16 27ZM27 24C28.66 24 30 25.34 30 27C30 28.66 28.66 30 27 30C25.34 30 24 28.66 24 27C24 25.34 25.34 24 27 24ZM26 27C26 27.55 26.45 28 27 28C27.55 28 28 27.55 28 27C28 26.45 27.55 26 27 26C26.45 26 26 26.45 26 27ZM37 24C38.66 24 40 25.34 40 27C40 28.66 38.66 30 37 30C35.34 30 34 28.66 34 27C34 25.34 35.34 24 37 24ZM36 27C36 27.55 36.45 28 37 28C37.55 28 38 27.55 38 27C38 26.45 37.55 26 37 26C36.45 26 36 26.45 36 27ZM59 43C58.45 43 58 42.55 58 42L58 5C58 3.89 57.1 3 56 3L7 3C6.45 3 6 2.55 6 2C6 1.45 6.45 1 7 1C7 1 17 1 17 1L56 1C58.21 1 60 2.79 60 5L60 42C60 42.55 59.55 43 59 43Z" />
			</g>
			<text id="Discussions " style="transform: matrix(1,0,0,1,77.532,13.968)" >
				<tspan x="0" y="0" class="txt2">D</tspan><tspan  y="0" class="txt2">iscussions
</tspan>
			</text>
			<text id="This I have produced as a scantling of Jack’s great eloquence a" style="opacity: 0.502;transform: matrix(1,0,0,1,81,34.612)" >
				<tspan x="0" y="9.8" class="txt3">T</tspan><tspan  y="9.8" class="txt3">his I have produced as a </tspan>
				<tspan x="0" y="31.8" class="txt3">scantling of Jack’s great </tspan>
				<tspan x="0" y="53.8" class="txt3">eloquence and the force of </tspan>
				<tspan x="0" y="75.8" class="txt3">his reasoning upon such </tspan>
				<tspan x="0" y="97.8" class="txt3">abstruse matters.
</tspan>
			</text>
		</g>
	</g>
</svg>