<svg version="1.2" baseProfile="tiny-ps" xmlns="http://www.w3.org/2000/svg" viewBox="0 0 61 60" width="61" height="60">
	<title>Features with big icons</title>
	<style>
		tspan { white-space:pre }
		.shp0 { fill: #26e6e6 } 
		.shp1 { fill: #2f3238 } 
	</style>
	<g id="Features with big icons">
		<g id="Second">
			<g id="edit">
				<path id="blue" class="shp0" d="M41.71 19.29C42.12 19.7 42.12 20.36 41.71 20.77L23.8 38.68C23.39 39.09 22.73 39.09 22.32 38.68C21.91 38.27 21.91 37.61 22.32 37.2L40.23 19.29C40.64 18.88 41.3 18.88 41.71 19.29Z" />
				<path id="black" class="shp1" d="M59.8 12.53L23.53 48.8C22.93 49.39 22.19 49.76 21.42 49.9C21.29 49.96 21.15 50 21 50L12 50L12 50C11.86 50 11.73 49.97 11.61 49.92C11.37 49.82 11.18 49.63 11.08 49.39C11.03 49.27 11 49.14 11 49L11 40.32C11 40.29 11 40.26 11 40.24L11 40C11 39.92 11.03 39.85 11.04 39.78C11.15 38.93 11.51 38.1 12.17 37.44L48.44 1.17C50.01 -0.4 52.55 -0.4 54.12 1.17L59.8 6.85C61.36 8.42 61.36 10.96 59.8 12.53ZM58.41 8.24L52.72 2.55C51.94 1.77 50.66 1.77 49.88 2.55L13 39.43L13 40L13 48L21 48L21.51 48L58.41 11.09C59.2 10.3 59.2 9.03 58.41 8.24ZM12.29 38.29C12.7 37.88 13.36 37.88 13.77 38.29L22.68 47.2C23.09 47.61 23.09 48.27 22.68 48.68C22.27 49.09 21.61 49.09 21.2 48.68L12.29 39.77C11.88 39.36 11.88 38.7 12.29 38.29ZM42.29 9.29C42.7 8.88 43.36 8.88 43.77 9.29L47.68 13.2C48.09 13.61 48.09 14.27 47.68 14.68C47.27 15.09 46.61 15.09 46.2 14.68L42.29 10.77C41.88 10.36 41.88 9.7 42.29 9.29ZM2 0C2.55 0 3 0.45 3 1L3 59C3 59.55 2.55 60 2 60C1.45 60 1 59.55 1 59L1 1C1 0.45 1.45 0 2 0ZM61 59C61 59.55 60.55 60 60 60L8 60C7.45 60 7 59.55 7 59C7 58.45 7.45 58 8 58L60 58C60.55 58 61 58.45 61 59ZM2 0L32 0C32.55 0 33 0.45 33 1C33 1.55 32.55 2 32 2L2 2C1.45 2 1 1.55 1 1C1 0.45 1.45 0 2 0ZM59 59L59 29C59 28.45 59.45 28 60 28C60.55 28 61 28.45 61 29L61 59C61 59.55 60.55 60 60 60C59.45 60 59 59.55 59 59Z" />
			</g>
		</g>
	</g>
</svg>