<svg version="1.2" baseProfile="tiny-ps" xmlns="http://www.w3.org/2000/svg" viewBox="0 0 38 60" width="38" height="60">
	<title>Platform Features</title>
	<style>
		tspan { white-space:pre }
		.shp0 { fill: #2f3238 } 
		.shp1 { fill: #26e6e6 } 
	</style>
	<g id="Platform Features">
		<g id="Mobile Apps">
			<g id="phone">
				<path id="black" fill-rule="evenodd" class="shp0" d="M4 0L34 0C36.21 0 38 1.79 38 4L38 56C38 58.21 36.21 60 34 60L4 60C1.79 60 0 58.21 0 56L0 4C0 1.79 1.79 0 4 0ZM2 4L2 48L31 48C31.55 48 32 48.45 32 49C32 49.55 31.55 50 31 50L2 50L2 56C2 57.1 2.9 58 4 58L34 58C35.1 58 36 57.1 36 56L36 12L7 12C6.45 12 6 11.55 6 11C6 10.45 6.45 10 7 10L36 10L36 4C36 2.89 35.1 2 34 2L4 2C2.9 2 2 2.89 2 4Z" />
				<path id="blue" class="shp1" d="M19 52C20.1 52 21 52.9 21 54C21 55.1 20.1 56 19 56C17.9 56 17 55.1 17 54C17 52.9 17.9 52 19 52ZM16 5L22 5C22.55 5 23 5.45 23 6C23 6.55 22.55 7 22 7L16 7C15.45 7 15 6.55 15 6C15 5.45 15.45 5 16 5ZM6.28 20.36L10.36 16.28C10.73 15.91 11.34 15.91 11.72 16.28C12.09 16.66 12.09 17.27 11.72 17.64L7.64 21.71C7.27 22.09 6.66 22.09 6.28 21.71C5.91 21.34 5.91 20.73 6.28 20.36ZM6.28 26.36L16.36 16.28C16.73 15.91 17.34 15.91 17.72 16.28C18.09 16.66 18.09 17.27 17.72 17.64L7.64 27.71C7.27 28.09 6.66 28.09 6.28 27.71C5.91 27.34 5.91 26.73 6.28 26.36Z" />
			</g>
		</g>
	</g>
</svg>